<svg xmlns="http://www.w3.org/2000/svg" viewBox="0 0 586 584">
  <path fill="#d7d7d7" d="M155.167 99.833v125.525l269.847 302.064V371.02L312.912 249.523 449.85 99.833H322.98l-66.453 74.509V99.833z"/>
  <path fill="#00e0c6" d="M155.167 247.173v39.94l101.359 112.772v-40.947zM155.167 309.936v74.175l101.359 109.75v-72.162z"/>
  <g>
    <path fill="#d7d7d7" d="M295.998 26.667c-148.73 0-269.302 120.063-269.302 268.165C26.696 442.938 147.268 563 295.998 563c148.736 0 269.307-120.064 269.307-268.168 0-148.103-120.571-268.165-269.307-268.165zm.971 510.72c-134.741 0-243.973-108.77-243.973-242.943 0-134.171 109.232-242.941 243.973-242.941 134.744 0 243.973 108.77 243.973 242.941S431.713 537.387 296.969 537.387z"/>
  </g>
</svg>